<svg xmlns="http://www.w3.org/2000/svg" viewBox="0 0 960 540" role="img" aria-label="Video player placeholder">
  <defs>
    <linearGradient id="hero-video-bg" x1="0%" y1="0%" x2="100%" y2="100%">
      <stop offset="0%" stop-color="#0b1220" />
      <stop offset="50%" stop-color="#0f1f38" />
      <stop offset="100%" stop-color="#112b45" />
    </linearGradient>
    <linearGradient id="hero-video-accent" x1="0%" y1="0%" x2="100%" y2="0%">
      <stop offset="0%" stop-color="#64ffda" stop-opacity="0.95" />
      <stop offset="100%" stop-color="#3fd7ff" stop-opacity="0.85" />
    </linearGradient>
    <clipPath id="screen">
      <rect x="60" y="60" width="840" height="420" rx="32" />
    </clipPath>
  </defs>
  <rect width="960" height="540" rx="40" fill="url(#hero-video-bg)" />
  <rect x="60" y="60" width="840" height="420" rx="32" fill="#0b1729" stroke="#132942" stroke-width="4" />
  <g clip-path="url(#screen)">
    <rect x="60" y="60" width="840" height="420" fill="#0d2239" />
    <path d="M60 360h840" stroke="#1d3351" stroke-width="2" stroke-dasharray="12 10" />
    <path d="M60 260h840" stroke="#1d3351" stroke-width="2" stroke-dasharray="12 10" />
    <path d="M60 160h840" stroke="#1d3351" stroke-width="2" stroke-dasharray="12 10" />
    <circle cx="480" cy="270" r="110" fill="none" stroke="#64ffda" stroke-width="4" opacity="0.7" />
    <circle cx="480" cy="270" r="80" fill="none" stroke="#64ffda" stroke-width="2" opacity="0.6" stroke-dasharray="18 12" />
    <polygon points="450,220 560,270 450,320" fill="url(#hero-video-accent)" opacity="0.95" />
    <rect x="140" y="120" width="120" height="24" rx="12" fill="#152b45" />
    <rect x="140" y="160" width="180" height="16" rx="8" fill="#1e3657" />
    <rect x="700" y="120" width="120" height="24" rx="12" fill="#152b45" />
    <rect x="640" y="160" width="180" height="16" rx="8" fill="#1e3657" />
  </g>
  <rect x="260" y="410" width="440" height="16" rx="8" fill="#1e3657" />
  <rect x="220" y="430" width="520" height="8" rx="4" fill="#132942" />
  <circle cx="360" cy="434" r="14" fill="url(#hero-video-accent)" />
  <circle cx="600" cy="434" r="10" fill="#152b45" stroke="#64ffda" stroke-width="2" />
  <rect x="60" y="498" width="840" height="12" rx="6" fill="#0a192f" />
</svg>
