<svg xmlns="http://www.w3.org/2000/svg" viewBox="0 0 640 400" role="img" aria-label="Radial gradient placeholder">
  <defs>
    <radialGradient id="blog4-radial" cx="50%" cy="40%" r="70%">
      <stop offset="0%" stop-color="#1c3e5c" />
      <stop offset="70%" stop-color="#0d1f35" />
      <stop offset="100%" stop-color="#081126" />
    </radialGradient>
    <linearGradient id="blog4-accent" x1="0%" y1="0%" x2="100%" y2="0%">
      <stop offset="0%" stop-color="#64ffda" />
      <stop offset="100%" stop-color="#47bfff" />
    </linearGradient>
  </defs>
  <rect width="640" height="400" rx="32" fill="url(#blog4-radial)" />
  <circle cx="320" cy="160" r="110" fill="none" stroke="#64ffda" stroke-width="3" opacity="0.35" />
  <circle cx="320" cy="160" r="70" fill="none" stroke="#64ffda" stroke-width="3" opacity="0.5" />
  <circle cx="320" cy="160" r="12" fill="#64ffda" opacity="0.7" />
  <path d="M60 320c60-50 120-50 180-10s120 40 180 10 120-40 180-10" fill="none" stroke="url(#blog4-accent)" stroke-width="5" stroke-linecap="round" opacity="0.4" />
  <path d="M60 340c60-40 120-20 180 10s120 20 180-10 120-20 180 10" fill="none" stroke="url(#blog4-accent)" stroke-width="5" stroke-linecap="round" opacity="0.25" />
  <circle cx="120" cy="120" r="24" fill="none" stroke="#64ffda" stroke-width="3" opacity="0.4" />
  <circle cx="520" cy="120" r="18" fill="#64ffda" opacity="0.3" />
  <circle cx="520" cy="120" r="6" fill="#081126" />
</svg>
