<svg xmlns="http://www.w3.org/2000/svg" viewBox="0 0 600 400" role="img" aria-label="GPT productivity apps placeholder">
  <defs>
    <linearGradient id="prod-bg" x1="0%" y1="0%" x2="100%" y2="100%">
      <stop offset="0%" stop-color="#091226" />
      <stop offset="100%" stop-color="#142c48" />
    </linearGradient>
    <linearGradient id="prod-orbit" x1="0%" y1="0%" x2="100%" y2="0%">
      <stop offset="0%" stop-color="#64ffda" />
      <stop offset="100%" stop-color="#49c5ff" />
    </linearGradient>
  </defs>
  <rect width="600" height="400" rx="28" fill="url(#prod-bg)" />
  <circle cx="300" cy="200" r="130" fill="#0b1b31" stroke="#1b3654" stroke-width="4" />
  <circle cx="300" cy="200" r="90" fill="#0d2239" />
  <circle cx="300" cy="200" r="40" fill="#122f4c" stroke="#64ffda" stroke-width="4" />
  <path d="M190 200a110 70 0 1 0 220 0 110 70 0 1 0-220 0" fill="none" stroke="url(#prod-orbit)" stroke-width="4" stroke-dasharray="14 12" />
  <circle cx="210" cy="180" r="18" fill="#64ffda" opacity="0.8" />
  <circle cx="390" cy="230" r="14" fill="#64ffda" opacity="0.6" />
  <rect x="120" y="80" width="120" height="60" rx="16" fill="#0d2239" stroke="#1b3654" />
  <rect x="140" y="100" width="80" height="20" rx="10" fill="#17324f" />
  <circle cx="160" cy="128" r="6" fill="#64ffda" />
  <rect x="360" y="70" width="140" height="70" rx="18" fill="#0d2239" stroke="#1b3654" />
  <rect x="380" y="95" width="100" height="10" rx="5" fill="#17324f" />
  <rect x="380" y="115" width="80" height="10" rx="5" fill="#17324f" />
  <rect x="180" y="300" width="240" height="32" rx="16" fill="#0d2239" stroke="#1b3654" />
  <rect x="200" y="310" width="120" height="12" rx="6" fill="#17324f" />
  <rect x="330" y="310" width="70" height="12" rx="6" fill="#17324f" />
  <circle cx="120" cy="300" r="14" fill="#64ffda" opacity="0.5" />
  <circle cx="480" cy="280" r="10" fill="#64ffda" opacity="0.4" />
</svg>
