<svg xmlns="http://www.w3.org/2000/svg" viewBox="0 0 600 400" role="img" aria-label="Process automation placeholder">
  <defs>
    <linearGradient id="auto-bg" x1="0%" y1="0%" x2="100%" y2="100%">
      <stop offset="0%" stop-color="#081126" />
      <stop offset="100%" stop-color="#112a45" />
    </linearGradient>
    <linearGradient id="auto-gear" x1="0%" y1="0%" x2="100%" y2="0%">
      <stop offset="0%" stop-color="#64ffda" />
      <stop offset="100%" stop-color="#4ad0ff" />
    </linearGradient>
  </defs>
  <rect width="600" height="400" rx="28" fill="url(#auto-bg)" />
  <circle cx="180" cy="200" r="80" fill="#0c2037" stroke="#1b3654" stroke-width="4" />
  <circle cx="180" cy="200" r="42" fill="#0f2a45" stroke="#64ffda" stroke-width="4" />
  <circle cx="420" cy="200" r="110" fill="#0c2037" stroke="#1b3654" stroke-width="4" />
  <circle cx="420" cy="200" r="60" fill="#0f2a45" stroke="#64ffda" stroke-width="4" />
  <path d="M180 140v-30m0 220v-30m-60-60h-30m220 0h-30" stroke="#64ffda" stroke-width="6" stroke-linecap="round" opacity="0.7" />
  <path d="M420 110V80m0 240v-30m-80-80h-30m220 0h-30" stroke="#64ffda" stroke-width="6" stroke-linecap="round" opacity="0.5" />
  <path d="M240 200h120" stroke="url(#auto-gear)" stroke-width="10" stroke-linecap="round" stroke-dasharray="24 18" />
  <rect x="120" y="320" width="360" height="24" rx="12" fill="#0d2239" />
  <rect x="140" y="326" width="160" height="12" rx="6" fill="#163551" />
  <rect x="320" y="326" width="80" height="12" rx="6" fill="#163551" />
  <circle cx="100" cy="120" r="14" fill="#64ffda" opacity="0.3" />
  <circle cx="520" cy="120" r="20" fill="none" stroke="#64ffda" stroke-width="4" opacity="0.6" />
  <circle cx="520" cy="120" r="6" fill="#64ffda" />
</svg>
