<svg xmlns="http://www.w3.org/2000/svg" viewBox="0 0 600 400" role="img" aria-label="Executive dashboard placeholder">
  <defs>
    <linearGradient id="dash-bg" x1="0%" y1="0%" x2="100%" y2="100%">
      <stop offset="0%" stop-color="#080f20" />
      <stop offset="100%" stop-color="#132a46" />
    </linearGradient>
    <linearGradient id="dash-accent" x1="0%" y1="0%" x2="100%" y2="0%">
      <stop offset="0%" stop-color="#64ffda" />
      <stop offset="100%" stop-color="#4fd4ff" />
    </linearGradient>
  </defs>
  <rect width="600" height="400" rx="28" fill="url(#dash-bg)" />
  <rect x="90" y="70" width="420" height="260" rx="24" fill="#0b1a2f" stroke="#1a3450" stroke-width="3" />
  <rect x="120" y="100" width="360" height="40" rx="12" fill="#0f253e" />
  <circle cx="150" cy="120" r="6" fill="#64ffda" />
  <circle cx="170" cy="120" r="6" fill="#64ffda" opacity="0.6" />
  <circle cx="190" cy="120" r="6" fill="#64ffda" opacity="0.4" />
  <rect x="220" y="110" width="200" height="12" rx="6" fill="#183451" />
  <rect x="120" y="160" width="160" height="150" rx="18" fill="#0f253e" />
  <rect x="300" y="160" width="180" height="150" rx="18" fill="#0f253e" />
  <path d="M140 290c40-100 80-100 120-60" fill="none" stroke="url(#dash-accent)" stroke-width="4" stroke-linecap="round" />
  <path d="M140 240h120" stroke="#1f3c5a" stroke-width="2" stroke-dasharray="6 10" />
  <path d="M140 210h120" stroke="#1f3c5a" stroke-width="2" stroke-dasharray="6 10" />
  <rect x="320" y="190" width="140" height="20" rx="10" fill="#183451" />
  <rect x="320" y="220" width="120" height="20" rx="10" fill="#183451" />
  <rect x="320" y="250" width="160" height="20" rx="10" fill="#183451" />
  <rect x="320" y="280" width="100" height="20" rx="10" fill="#183451" />
  <circle cx="370" cy="250" r="40" fill="none" stroke="#64ffda" stroke-width="4" />
  <path d="M370 210a40 40 0 0 1 35 21" fill="none" stroke="#4fd4ff" stroke-width="6" stroke-linecap="round" />
  <text x="190" y="250" font-family="'JetBrains Mono', 'Segoe UI', sans-serif" font-size="32" fill="#64ffda" text-anchor="middle">20%</text>
  <text x="370" y="255" font-family="'JetBrains Mono', 'Segoe UI', sans-serif" font-size="24" fill="#64ffda" text-anchor="middle">KPIs</text>
  <rect x="160" y="330" width="280" height="18" rx="9" fill="#132f4a" />
  <rect x="180" y="334" width="160" height="10" rx="5" fill="#183451" />
  <circle cx="120" cy="90" r="14" fill="#64ffda" opacity="0.3" />
  <circle cx="480" cy="90" r="18" fill="none" stroke="#64ffda" stroke-width="3" opacity="0.5" />
</svg>
